<?xml version="1.0" encoding="UTF-8"?>
<svg version="1.1" xmlns="http://www.w3.org/2000/svg" width="500" height="500">
<path d="M0 0 C53.26308498 0 53.26308498 0 61.59765625 8.2734375 C68.23264321 16.44241866 67.97568382 25.95735544 67 36 C65.50937048 41.50815509 62.22071037 45.23558264 58 49 C57.67 49.33 57.34 49.66 57 50 C57.81984375 50.39832031 58.6396875 50.79664063 59.484375 51.20703125 C60.56203125 51.73683594 61.6396875 52.26664063 62.75 52.8125 C63.81734375 53.33457031 64.8846875 53.85664063 65.984375 54.39453125 C68.55233242 55.7616692 70.74470783 57.17715463 73 59 C73.32871094 58.443125 73.65742188 57.88625 73.99609375 57.3125 C78.59528971 49.93384415 84.78783626 42.06217079 93.4453125 39.40234375 C103.43553429 37.8289602 114.09472963 37.66073505 123 43 C123.66 43.66 124.32 44.32 125 45 C125.66 43.35 126.32 41.7 127 40 C134.59 40 142.18 40 150 40 C150.06794093 50.01449252 150.12291112 60.02883044 150.15543652 70.04350185 C150.17105184 74.69437198 150.19221412 79.3450754 150.22631836 83.99584961 C150.25905987 88.48921903 150.27688406 92.98242872 150.28463173 97.47590828 C150.2901488 99.18501358 150.30092197 100.89411073 150.31719017 102.60314751 C150.43415032 115.40652484 149.95250422 124.9479211 140.67578125 134.6953125 C128.33919985 145.32098115 113.39934969 144.99494084 98 144 C88.5052016 142.40633313 80.17521566 137.60530675 74.375 129.8125 C73 127 73 127 73.19799805 124.96020508 C74.209312 122.48841217 75.09363865 122.00874314 77.45703125 120.82421875 C78.15763672 120.47166016 78.85824219 120.11910156 79.58007812 119.75585938 C80.31677734 119.40330078 81.05347656 119.05074219 81.8125 118.6875 C82.53759766 118.31560547 83.26269531 117.94371094 84.00976562 117.56054688 C89.37593822 114.9241016 89.37593822 114.9241016 92.04956055 115.24926758 C95.20011595 116.46192972 97.44974781 118.82957261 100 121 C105.39253486 122.79751162 111.77149231 122.98601893 117.23828125 121.31640625 C121.50402578 119.11502631 123.47943029 116.47226386 125 112 C125.25196823 108.74899636 125.25196823 108.74899636 125 106 C124.0925 106.474375 123.185 106.94875 122.25 107.4375 C113.73896867 111.52934199 102.1557265 111.34454026 93.03125 109.3515625 C85.15193575 106.10550698 79.14851738 99.59653789 74 93 C73.5875 93.51949219 73.175 94.03898437 72.75 94.57421875 C66.54734565 102.06447769 61.39966503 105.31438142 52 108 C34.84 108 17.68 108 0 108 C0 72.36 0 36.72 0 0 Z M25 20 C25 27.26 25 34.52 25 42 C31.78288789 42 35.27539922 41.35891383 40.875 37.8125 C42.76857858 34.7617345 43.10317869 31.51495416 43 28 C41.68804529 24.52717871 40.42237748 23.29164159 37.375 21.1875 C33.1813344 19.50214068 33.1813344 19.50214068 25 20 Z M99.6875 64.375 C96.48759838 69.35262474 95.49852468 72.84107389 96.33203125 78.71484375 C97.50415106 82.72472733 99.82073045 85.36553486 103 88 C107.86975897 90.59720479 112.76267995 90.42665349 118 89 C122.57356417 86.20504412 125.05109585 83.22023844 126.66015625 78.18359375 C127.46845689 72.99002985 125.92030385 68.56792507 123.3125 64.125 C119.82227162 60.91776311 116.18277679 59.32741652 111.5 58.625 C106.70956602 59.3435651 103.07721654 60.8936695 99.6875 64.375 Z M25 64 C25 72.25 25 80.5 25 89 C36.67646965 89.28292636 36.67646965 89.28292636 47 85 C49.74815415 82.25184585 50.20732291 80.54208189 50.375 76.75 C50.32618444 73.38172652 49.97855358 71.27275147 47.9375 68.5625 C41.14495356 62.63708715 33.61409528 63.82238979 25 64 Z " fill="#2F2D2E" transform="translate(175,196)"/>
<path d="M0 0 C8.33122136 6.43776196 13.54765345 14.410385 15.3203125 24.79296875 C15.39822137 26.63145043 15.42824865 28.47239702 15.41796875 30.3125 C15.41313477 31.84487305 15.41313477 31.84487305 15.40820312 33.40820312 C15.39563477 34.99084961 15.39563477 34.99084961 15.3828125 36.60546875 C15.37830078 37.67990234 15.37378906 38.75433594 15.36914062 39.86132812 C15.35738979 42.50526558 15.34096037 45.14908827 15.3203125 47.79296875 C14.6603125 47.79296875 14.0003125 47.79296875 13.3203125 47.79296875 C13.18496094 46.72820312 13.04960937 45.6634375 12.91015625 44.56640625 C11.04850916 31.45743456 7.67354914 19.1014766 -3.125 10.4140625 C-7.68966751 7.51752272 -12.59498021 5.5825104 -17.6796875 3.79296875 C-17.13441406 4.12167969 -16.58914063 4.45039063 -16.02734375 4.7890625 C-3.81754352 12.4906288 2.88625644 21.61501265 8.3203125 34.79296875 C8.3203125 35.78296875 8.3203125 36.77296875 8.3203125 37.79296875 C5.80190435 38.47018775 3.28122526 39.13488049 0.7578125 39.79296875 C0.05333984 39.98375 -0.65113281 40.17453125 -1.37695312 40.37109375 C-10.20339308 42.64888471 -17.77248475 42.26245827 -25.71484375 37.59765625 C-32.41011047 32.51298053 -35.74408972 25.00925617 -39.61132812 17.75390625 C-41.1379391 14.95186345 -42.79347798 12.24348132 -44.4921875 9.54296875 C-45.01425781 8.7128125 -45.53632813 7.88265625 -46.07421875 7.02734375 C-47.63620424 4.69874285 -47.63620424 4.69874285 -49.87890625 2.74609375 C-51.6796875 0.79296875 -51.6796875 0.79296875 -51.6796875 -3.20703125 C-34.26018983 -8.39581779 -16.07134688 -10.46446219 0 0 Z " fill="#45A803" transform="translate(281.6796875,184.20703125)"/>
<path d="M0 0 C-2.35495628 4.85432025 -5.17413198 9.4088035 -8 14 C-8.76763672 15.26070312 -8.76763672 15.26070312 -9.55078125 16.546875 C-10.04964844 17.33578125 -10.54851562 18.1246875 -11.0625 18.9375 C-11.50722656 19.64777344 -11.95195312 20.35804688 -12.41015625 21.08984375 C-15.23163403 24.47977652 -17.80869872 25.86439288 -22.19140625 26.36328125 C-23.30386719 26.34652344 -24.41632813 26.32976562 -25.5625 26.3125 C-26.67753906 26.30863281 -27.79257812 26.30476563 -28.94140625 26.30078125 C-31.8460124 26.0151431 -33.54100026 25.5090683 -36 24 C-35.44843068 16.64574238 -31.42397692 10.82131281 -26 6 C-26.61875 6.495 -27.2375 6.99 -27.875 7.5 C-30 9 -30 9 -32 9 C-35.4620342 15.7532954 -38.33844731 22.39214401 -39 30 C-39.66 29.67 -40.32 29.34 -41 29 C-41.42305925 19.73970311 -40.99580857 12.53651012 -35.8125 4.6875 C-25.95523154 -4.73166764 -12.1310599 -5.03214336 0 0 Z " fill="#46A804" transform="translate(354,204)"/>
<path d="M0 0 C7.03578487 6.46367087 11.38863171 13.56210715 13 23 C13.07790887 24.83848168 13.10793615 26.67942827 13.09765625 28.51953125 C13.09282227 30.0519043 13.09282227 30.0519043 13.08789062 31.61523438 C13.07532227 33.19788086 13.07532227 33.19788086 13.0625 34.8125 C13.05798828 35.88693359 13.05347656 36.96136719 13.04882812 38.06835938 C13.03707729 40.71229683 13.02064787 43.35611952 13 46 C12.34 46 11.68 46 11 46 C10.79697266 44.40285156 10.79697266 44.40285156 10.58984375 42.7734375 C8.73032263 29.67943602 5.36571457 17.25082989 -5.47265625 8.6171875 C-12.06717247 4.39751252 -19.16543838 1.59128767 -27 1 C-28.60485011 0.84004816 -30.20901207 0.67307489 -31.8125 0.5 C-32.56144531 0.4278125 -33.31039062 0.355625 -34.08203125 0.28125 C-36 0 -36 0 -38 -1 C-37.67 -2.32 -37.34 -3.64 -37 -5 C-39.98349706 -6.33357577 -39.98349706 -6.33357577 -42.875 -5 C-46.17235724 -3.94484568 -47.73686225 -4.0402536 -51 -5 C-36.9909306 -14.3393796 -12.51246989 -9.66872674 0 0 Z " fill="#47A806" transform="translate(284,186)"/>
<path d="M0 0 C-0.33 0.99 -0.66 1.98 -1 3 C-1.495 1.515 -1.495 1.515 -2 0 C-2.969375 0.185625 -3.93875 0.37125 -4.9375 0.5625 C-6.4534375 0.7790625 -6.4534375 0.7790625 -8 1 C-8.495 0.505 -8.495 0.505 -9 0 C-10.66617115 -0.04063832 -12.33388095 -0.042721 -14 0 C-12.68 0.66 -11.36 1.32 -10 2 C-12.97 2.66 -15.94 3.32 -19 4 C-19.33 5.98 -19.66 7.96 -20 10 C-20.66 10 -21.32 10 -22 10 C-22 9.34 -22 8.68 -22 8 C-23.65 8.33 -25.3 8.66 -27 9 C-26.67 8.01 -26.34 7.02 -26 6 C-26.61875 6.495 -27.2375 6.99 -27.875 7.5 C-30 9 -30 9 -32 9 C-35.4620342 15.7532954 -38.33844731 22.39214401 -39 30 C-39.66 29.67 -40.32 29.34 -41 29 C-41.42305925 19.73970311 -40.99580857 12.53651012 -35.8125 4.6875 C-25.95523154 -4.73166764 -12.1310599 -5.03214336 0 0 Z " fill="#4AA709" transform="translate(354,204)"/>
<path d="M0 0 C3.1214778 1.35804554 4.96958229 2.81375855 7.125 5.4375 C7.62257813 6.03433594 8.12015625 6.63117188 8.6328125 7.24609375 C9.82665495 8.77762306 10.9228468 10.3842702 12 12 C12.33 11.01 12.66 10.02 13 9 C11.68 8.34 10.36 7.68 9 7 C9 6.01 9 5.02 9 4 C9.66 4 10.32 4 11 4 C11.33 2.68 11.66 1.36 12 0 C12.82011312 1.55851755 13.63076213 3.12201716 14.4375 4.6875 C14.88996094 5.55761719 15.34242188 6.42773438 15.80859375 7.32421875 C17.75983154 11.70650691 18.12426715 15.75618045 18.09765625 20.51953125 C18.09443359 21.54111328 18.09121094 22.56269531 18.08789062 23.61523438 C18.07951172 24.67033203 18.07113281 25.72542969 18.0625 26.8125 C18.05798828 27.88693359 18.05347656 28.96136719 18.04882812 30.06835938 C18.03707729 32.71229683 18.02064787 35.35611952 18 38 C17.34 38 16.68 38 16 38 C15.86464844 36.93523437 15.72929687 35.87046875 15.58984375 34.7734375 C13.67209427 21.30081832 9.7321716 9.96954164 0 0 Z " fill="#4BA40F" transform="translate(279,194)"/>
<path d="M0 0 C2.36002096 1.54622063 2.90125807 2.7319862 3.875 5.375 C4.04299299 8.90285284 3.29492223 10.33492902 1 13 C-1.875 14.0625 -1.875 14.0625 -5 14 C-7.875 12.4375 -7.875 12.4375 -10 10 C-10.5625 7 -10.5625 7 -10 4 C-7.21052575 -0.0769239 -4.82207542 -0.71818145 0 0 Z M-6.3125 3.6875 C-8.27510079 5.8305797 -8.27510079 5.8305797 -7.75 8.25 C-7.5025 8.8275 -7.255 9.405 -7 10 C-4.09926819 10.67801034 -4.09926819 10.67801034 -1 11 C-0.34 10.34 0.32 9.68 1 9 C0.67801034 5.90073181 0.67801034 5.90073181 0 3 C-2.97284889 1.7259219 -3.62296038 1.72486298 -6.3125 3.6875 Z " fill="#202020" transform="translate(280,359)"/>
<path d="M0 0 C6.0546875 -0.1953125 6.0546875 -0.1953125 8 0 C10 2 10 2 10.125 4.375 C10.08375 5.24125 10.0425 6.1075 10 7 C10 8.32 10 9.64 10 11 C10 11.66 10 12.32 10 13 C6.73045798 12.43628586 5.17424117 11.50037734 3 9 C3 10.32 3 11.64 3 13 C2.01 13 1.02 13 0 13 C0 8.71 0 4.42 0 0 Z M3 3 C3 4.32 3 5.64 3 7 C4.65 6.34 6.3 5.68 8 5 C7.67 4.34 7.34 3.68 7 3 C5.68 3 4.36 3 3 3 Z " fill="#161616" transform="translate(337,359)"/>
<path d="M0 0 C3.23475448 1.61737724 4.70572021 2.47629223 7 5 C7.61875 4.175 8.2375 3.35 8.875 2.5 C9.57625 1.675 10.2775 0.85 11 0 C11.66 0 12.32 0 13 0 C13 4.29 13 8.58 13 13 C12.34 13 11.68 13 11 13 C10.67 11.02 10.34 9.04 10 7 C9.01 8.485 9.01 8.485 8 10 C6.0625 9.625 6.0625 9.625 4 9 C3.67 8.34 3.34 7.68 3 7 C2.67 8.98 2.34 10.96 2 13 C1.34 13 0.68 13 0 13 C0 8.71 0 4.42 0 0 Z " fill="#222222" transform="translate(245,359)"/>
<path d="M0 0 C6.0546875 -0.1953125 6.0546875 -0.1953125 8 0 C10 2 10 2 10.125 4.375 C10.08375 5.24125 10.0425 6.1075 10 7 C10 8.32 10 9.64 10 11 C10 11.66 10 12.32 10 13 C7 13 7 13 4.8125 11 C4.214375 10.34 3.61625 9.68 3 9 C3 10.32 3 11.64 3 13 C2.01 13 1.02 13 0 13 C0 8.71 0 4.42 0 0 Z M3 3 C3 4.32 3 5.64 3 7 C4.65 6.34 6.3 5.68 8 5 C7.67 4.34 7.34 3.68 7 3 C5.68 3 4.36 3 3 3 Z " fill="#1E1E1E" transform="translate(202,359)"/>
<path d="M0 0 C2.97 0 5.94 0 9 0 C8.67 0.99 8.34 1.98 8 3 C6.35 2.67 4.7 2.34 3 2 C3 2.99 3 3.98 3 5 C4.65 5 6.3 5 8 5 C8 5.99 8 6.98 8 8 C6.35 8 4.7 8 3 8 C3 8.99 3 9.98 3 11 C4.98 11 6.96 11 9 11 C9 11.66 9 12.32 9 13 C6.03 13 3.06 13 0 13 C0 8.71 0 4.42 0 0 Z " fill="#1C1C1C" transform="translate(224,359)"/>
<path d="M0 0 C2.64 0 5.28 0 8 0 C8 0.99 8 1.98 8 3 C6.35 3 4.7 3 3 3 C2.67 3.66 2.34 4.32 2 5 C3.98 5 5.96 5 8 5 C8 5.99 8 6.98 8 8 C6.02 8 4.04 8 2 8 C2 8.99 2 9.98 2 11 C4.31 11 6.62 11 9 11 C9 11.66 9 12.32 9 13 C6.03 13 3.06 13 0 13 C0 8.71 0 4.42 0 0 Z " fill="#1F1F1F" transform="translate(317,359)"/>
<path d="M0 0 C5.73086497 3.82057665 8.44018993 8.13347372 11.4375 14.1875 C11.96827148 15.25774414 11.96827148 15.25774414 12.50976562 16.34960938 C13.95815435 19.38692354 15 21.59538628 15 25 C8.71428571 27.42857143 8.71428571 27.42857143 5 26 C5.66 26 6.32 26 7 26 C7.33 24.68 7.66 23.36 8 22 C9.32 22.33 10.64 22.66 12 23 C10.52694454 18.11070955 9.24466723 14.01720704 6 10 C6 9.01 6 8.02 6 7 C5.195625 6.773125 4.39125 6.54625 3.5625 6.3125 C2.716875 5.879375 1.87125 5.44625 1 5 C0.1875 2.375 0.1875 2.375 0 0 Z " fill="#51A218" transform="translate(275,197)"/>
<path d="M0 0 C3 1 3 1 4.6875 4.0625 C5.120625 5.031875 5.55375 6.00125 6 7 C6.99 4.69 7.98 2.38 9 0 C9.99 0 10.98 0 12 0 C11.54554036 1.41791408 11.08625056 2.83428046 10.625 4.25 C10.36976563 5.03890625 10.11453125 5.8278125 9.8515625 6.640625 C9.04826333 8.86627958 8.10288338 10.90931672 7 13 C6.01 13 5.02 13 4 13 C3.32694982 11.39850114 2.66177773 9.79368971 2 8.1875 C1.62875 7.29417969 1.2575 6.40085937 0.875 5.48046875 C0 3 0 3 0 0 Z " fill="#1D1D1D" transform="translate(294,359)"/>
<path d="M0 0 C0.68151123 -0.00080566 1.36302246 -0.00161133 2.06518555 -0.00244141 C5.72242802 0.03802974 9.13068675 0.32753548 12.6875 1.1875 C12.6875 1.5175 12.6875 1.8475 12.6875 2.1875 C12.02218262 2.20731934 11.35686523 2.22713867 10.67138672 2.24755859 C7.63471732 2.34326418 4.59869322 2.45275808 1.5625 2.5625 C-0.00757813 2.60890625 -0.00757813 2.60890625 -1.609375 2.65625 C-6.90666269 2.85741282 -11.31662801 3.26601077 -16.3125 5.1875 C-19.1875 4.8125 -19.1875 4.8125 -21.3125 4.1875 C-14.96968235 -0.0410451 -7.4184587 0.0084734 0 0 Z " fill="#5AA226" transform="translate(254.3125,176.8125)"/>
<path d="M0 0 C0.33 1.32 0.66 2.64 1 4 C1.66 4 2.32 4 3 4 C3.33 3.01 3.66 2.02 4 1 C4.66 1.33 5.32 1.66 6 2 C5.38125 2.928125 4.7625 3.85625 4.125 4.8125 C1.37123994 9.55834181 0.7380255 14.62989339 0 20 C-0.66 19.67 -1.32 19.34 -2 19 C-2.19818283 12.29481414 -2.30844801 6.34823202 0 0 Z " fill="#509E17" transform="translate(315,214)"/>
<path d="M0 0 C0.99 0.33 1.98 0.66 3 1 C2.34 1 1.68 1 1 1 C4.20728523 4.96988597 4.20728523 4.96988597 7.75 8.625 C9.29675426 10.32642969 9.61402447 11.76134195 10 14 C10.99 13.67 11.98 13.34 13 13 C13.66 16.96 14.32 20.92 15 25 C11.65638835 20.54185113 8.88265435 15.87798573 6.03515625 11.09375 C4.16026359 7.99232836 4.16026359 7.99232836 1.74609375 5.84375 C0 4 0 4 0 0 Z " fill="#539B1D" transform="translate(230,181)"/>
<path d="M0 0 C-0.33 0.99 -0.66 1.98 -1 3 C-1.33 2.01 -1.66 1.02 -2 0 C-2.969375 0.185625 -3.93875 0.37125 -4.9375 0.5625 C-5.948125 0.706875 -6.95875 0.85125 -8 1 C-8.33 0.67 -8.66 0.34 -9 0 C-10.34267413 -0.08631874 -11.68974322 -0.10706473 -13.03515625 -0.09765625 C-13.84404297 -0.09443359 -14.65292969 -0.09121094 -15.48632812 -0.08789062 C-16.7615332 -0.07532227 -16.7615332 -0.07532227 -18.0625 -0.0625 C-18.91650391 -0.05798828 -19.77050781 -0.05347656 -20.65039062 -0.04882812 C-22.76695663 -0.03700373 -24.88348685 -0.01906769 -27 0 C-20.56852306 -6.43147694 -7.42410395 -3.0796283 0 0 Z " fill="#5A9D23" transform="translate(354,204)"/>
<path d="M0 0 C0.2475 0.61875 0.495 1.2375 0.75 1.875 C2.28822496 4.48998244 3.12350424 5.06708246 6 6 C12.24048581 6.7341748 16.56961418 4.75829121 22 2 C21 5 21 5 18.84765625 6.66796875 C15.48354804 8.24157767 13.13741523 8.36823453 9.4375 8.3125 C8.32246094 8.30863281 7.20742188 8.30476562 6.05859375 8.30078125 C3.1539876 8.0151431 1.45899974 7.5090683 -1 6 C-0.67 4.02 -0.34 2.04 0 0 Z " fill="#559E1C" transform="translate(319,222)"/>
<path d="M0 0 C0.33 0 0.66 0 1 0 C1 7.59 1 15.18 1 23 C0.34 23 -0.32 23 -1 23 C-1.66 17.72 -2.32 12.44 -3 7 C-2.34 7.66 -1.68 8.32 -1 9 C-0.67 6.03 -0.34 3.06 0 0 Z " fill="#61973C" transform="translate(296,209)"/>
<path d="M0 0 C0.66 0.33 1.32 0.66 2 1 C2 4.66666667 2 8.33333333 2 12 C-1 12 -1 12 -3.1875 10.125 C-5 8 -5 8 -5 6 C-3 4.375 -3 4.375 -1 3 C-1.33 2.34 -1.66 1.68 -2 1 C-1.34 0.67 -0.68 0.34 0 0 Z " fill="#171717" transform="translate(210,360)"/>
<path d="M0 0 C0 0.99 0 1.98 0 3 C5.94 3.33 11.88 3.66 18 4 C18 4.33 18 4.66 18 5 C10.27186767 5.99139874 3.07034398 6.8955536 -4 3 C-4.33 2.34 -4.66 1.68 -5 1 C-2 0 -2 0 0 0 Z " fill="#509B1D" transform="translate(262,220)"/>
<path d="M0 0 C0.66 0.33 1.32 0.66 2 1 C2.625 3.0625 2.625 3.0625 3 5 C2.34 5 1.68 5 1 5 C1 5.66 1 6.32 1 7 C0.01 7.33 -0.98 7.66 -2 8 C-2.33 8.66 -2.66 9.32 -3 10 C-3.66 10 -4.32 10 -5 10 C-4.49701212 5.59885603 -2.91227269 3.28804981 0 0 Z " fill="#45A603" transform="translate(321,208)"/>
<path d="M0 0 C0 0.99 0 1.98 0 3 C-0.721875 3.226875 -1.44375 3.45375 -2.1875 3.6875 C-5.53209313 5.24831013 -7.51603959 7.3031287 -10 10 C-10 6.04435836 -8.59478606 4.89133304 -6 2 C-3 0 -3 0 0 0 Z " fill="#53A11B" transform="translate(327,204)"/>
<path d="M0 0 C1.04684305 4.18737219 1.10194044 4.59557728 -0.75 8.125 C-1.09546875 8.80820312 -1.4409375 9.49140625 -1.796875 10.1953125 C-3 12 -3 12 -6 14 C-6 13.34 -6 12.68 -6 12 C-6.66 11.67 -7.32 11.34 -8 11 C-7.34 10.34 -6.68 9.68 -6 9 C-5.01 9 -4.02 9 -3 9 C-2.01 6.03 -1.02 3.06 0 0 Z " fill="#222122" transform="translate(323,314)"/>
<path d="M0 0 C0.99 0.66 1.98 1.32 3 2 C1.66958425 12.15317287 1.66958425 12.15317287 -1.125 15.6875 C-1.74375 16.120625 -2.3625 16.55375 -3 17 C-3.66 16.67 -4.32 16.34 -5 16 C-4.360625 15.21625 -3.72125 14.4325 -3.0625 13.625 C-0.21991345 9.44649822 -0.19460806 4.92358402 0 0 Z " fill="#242223" transform="translate(301,266)"/>
<path d="M0 0 C2.31 0 4.62 0 7 0 C7.33 1.65 7.66 3.3 8 5 C5.36 4.01 2.72 3.02 0 2 C0 1.34 0 0.68 0 0 Z " fill="#1C1C1C" transform="translate(338,359)"/>
<path d="M0 0 C4.2742558 1.5830577 6.26531794 4.50568404 9 8 C7.02 8.33 5.04 8.66 3 9 C3.0928125 7.824375 3.0928125 7.824375 3.1875 6.625 C3.125625 5.75875 3.06375 4.8925 3 4 C2.01 3.34 1.02 2.68 0 2 C0 1.34 0 0.68 0 0 Z " fill="#519F17" transform="translate(281,185)"/>
<path d="M0 0 C3 3 3 3 3.07421875 5.48046875 C2.94660156 6.37378906 2.81898438 7.26710937 2.6875 8.1875 C2.56761719 9.08855469 2.44773437 9.98960937 2.32421875 10.91796875 C2.21722656 11.60503906 2.11023438 12.29210937 2 13 C1.34 12.67 0.68 12.34 0 12 C0 8.04 0 4.08 0 0 Z " fill="#648F44" transform="translate(313,221)"/>
<path d="M0 0 C3.33193619 2.69728168 4.60371996 6.02060187 6 10 C5.578125 12.22265625 5.578125 12.22265625 5 14 C4.15675328 12.421924 3.32576082 10.8372958 2.5 9.25 C2.0359375 8.36828125 1.571875 7.4865625 1.09375 6.578125 C0 4 0 4 0 0 Z " fill="#519720" transform="translate(290,194)"/>
<path d="M0 0 C0.33 0.66 0.66 1.32 1 2 C0.67 2.99 0.34 3.98 0 5 C-3.82097239 4.46930939 -6.06171403 3.50298434 -9 1 C-7.88625 1.020625 -6.7725 1.04125 -5.625 1.0625 C-2.16784079 1.26380718 -2.16784079 1.26380718 0 0 Z " fill="#4DA113" transform="translate(281,189)"/>
<path d="M0 0 C2.97 0.33 5.94 0.66 9 1 C9 1.66 9 2.32 9 3 C6.03 3 3.06 3 0 3 C0 2.01 0 1.02 0 0 Z " fill="#191919" transform="translate(317,369)"/>
<path d="M0 0 C5.52628901 1.19194469 8.17819158 2.5991297 12 7 C8.60463643 6.39368508 6.69339132 5.10421197 4 3 C2.68163705 2.30419733 1.35208914 1.62775567 0 1 C0 0.67 0 0.34 0 0 Z " fill="#242722" transform="translate(224,198)"/>
<path d="M0 0 C1.8871875 0.061875 1.8871875 0.061875 3.8125 0.125 C1.61286434 2.32463566 0.81902461 2.69549648 -2.1875 3.125 C-4.9375 2.6875 -4.9375 2.6875 -7.1875 2.125 C-4.09861478 0.06574319 -3.47814073 -0.1140374 0 0 Z " fill="#4FA419" transform="translate(240.1875,178.875)"/>
</svg>
